<svg width="19" height="18" viewBox="0 0 19 18" fill="none" xmlns="http://www.w3.org/2000/svg">
<path d="M9.21496 14.7845L8.43108 14.0006C8.42873 13.9986 8.42598 13.9978 8.42364 13.9955L4.78198 10.3538C4.77964 10.3515 4.77882 10.3479 4.77647 10.3456L3.99301 9.56209L3.03223 10.5229L8.25449 15.7448L9.21496 14.7845Z" fill="white"/>
<path d="M1.49329 18L5.44077 14.0501L4.72729 13.3362L0.777344 17.2837L1.49329 18Z" fill="white"/>
<path d="M9.7582 9.57771C9.68118 9.65474 9.58004 9.69345 9.47891 9.69345C9.37777 9.69345 9.27663 9.65473 9.19961 9.57771C9.04515 9.42325 9.04515 9.17358 9.19961 9.01912L18.2184 0L14.3182 0.0378909L5.60205 10.0542L8.72267 13.1748L18.7379 4.46117L18.7771 0.558847L9.7582 9.57771Z" fill="white"/>
</svg>
