<svg width="63" height="63" viewBox="0 0 63 63" fill="none" xmlns="http://www.w3.org/2000/svg">
<rect x="31.1473" y="1.27132" width="42.2512" height="42.2512" transform="rotate(45 31.1473 1.27132)" fill="#121212" stroke="url(#paint0_linear_13_878)" stroke-width="1.79792"/>
<path d="M30.4462 39.7196C30.2304 39.7196 30.047 39.6441 29.896 39.493C29.745 39.342 29.6695 39.1478 29.6695 38.9105V32.794H23.6824C23.445 32.794 23.2509 32.7185 23.0998 32.5674C22.9488 32.4164 22.8733 32.233 22.8733 32.0173V29.9784C22.8733 29.7411 22.9488 29.5469 23.0998 29.3959C23.2509 29.2449 23.445 29.1694 23.6824 29.1694H29.6695V23.247C29.6695 23.0097 29.745 22.8155 29.896 22.6645C30.047 22.5135 30.2304 22.4379 30.4462 22.4379H32.7439C32.9597 22.4379 33.143 22.5135 33.2941 22.6645C33.4451 22.8155 33.5206 23.0097 33.5206 23.247V29.1694H39.5077C39.7234 29.1694 39.9068 29.2449 40.0579 29.3959C40.2089 29.5469 40.2844 29.7411 40.2844 29.9784V32.0173C40.2844 32.233 40.2089 32.4164 40.0579 32.5674C39.9068 32.7185 39.7234 32.794 39.5077 32.794H33.5206V38.9105C33.5206 39.1478 33.4451 39.342 33.2941 39.493C33.143 39.6441 32.9597 39.7196 32.7439 39.7196H30.4462Z" fill="white"/>
<defs>
<linearGradient id="paint0_linear_13_878" x1="53.1719" y1="0" x2="53.1719" y2="44.0491" gradientUnits="userSpaceOnUse">
<stop stop-color="#FF007A"/>
<stop offset="1" stop-color="#C11E94"/>
</linearGradient>
</defs>
</svg>
