<svg width="63" height="63" viewBox="0 0 63 63" fill="none" xmlns="http://www.w3.org/2000/svg">
<rect x="31.1475" y="1.27132" width="42.2512" height="42.2512" transform="rotate(45 31.1475 1.27132)" fill="#121212" stroke="url(#paint0_linear_13_1608)" stroke-width="1.79792"/>
<path d="M44 32.2957V25.3833C44 24.6167 43.3784 23.9953 42.6119 23.9953H39.8932V33.684H42.6119C43.3786 33.684 44 33.0624 44 32.2957ZM20.8348 36.7495H29.069L26.9008 42.1776C26.9008 42.1776 26.6582 42.6773 26.7422 43.2711C26.8262 43.8649 27.3815 44.2307 27.3815 44.2307L28.1828 44.8008C28.1828 44.8008 28.5788 45.0731 29.0937 45.0082C29.5602 44.9492 29.7139 44.6979 29.7926 44.596C30.9006 43.1643 33.0256 40.3933 33.5681 39.6888C35.2376 37.5195 36.0934 37.3026 37.298 36.3265C38.5027 35.3507 38.4479 34.5371 38.4479 34.5371L38.4487 24.0824C35.8427 22.8674 32.6214 22 31.8548 22L23.2642 22.0002C21.7309 22.0002 20.9047 23.3128 20.4878 24.7767L18.0586 33.9733C17.6681 35.5914 19.3017 36.7495 20.8347 36.7495L20.8348 36.7495Z" fill="white"/>
<defs>
<linearGradient id="paint0_linear_13_1608" x1="53.172" y1="0" x2="53.172" y2="44.0491" gradientUnits="userSpaceOnUse">
<stop stop-color="#FF007A"/>
<stop offset="1" stop-color="#C11E94"/>
</linearGradient>
</defs>
</svg>
