<svg width="63" height="63" viewBox="0 0 63 63" fill="none" xmlns="http://www.w3.org/2000/svg">
<rect x="31.1475" y="1.27132" width="42.2512" height="42.2512" transform="rotate(45 31.1475 1.27132)" fill="#121212" stroke="url(#paint0_linear_13_1511)" stroke-width="1.79792"/>
<path d="M23.3853 23.9852C23.9086 20.8321 25.0104 19 25.8626 19C26.7209 19 27.8227 20.8323 28.3461 23.9852C27.5243 23.9061 26.6903 23.8633 25.8626 23.8633C25.0351 23.8636 24.2011 23.9061 23.3853 23.9852Z" fill="white"/>
<path d="M17 27.8626C17 27.0105 18.8323 25.9087 21.9852 25.3853C21.9061 26.2008 21.8633 27.0348 21.8633 27.8626C21.8633 28.6903 21.9058 29.5243 21.9852 30.3461C18.8323 29.8224 17 28.7207 17 27.8626Z" fill="white"/>
<path d="M22.1374 31.5878C22.4296 33.5295 22.9592 35.2764 23.6957 36.4511C20.5488 35.6537 18.0715 33.1764 17.28 30.0295C18.4486 30.7719 20.1957 31.2957 22.1374 31.5878Z" fill="white"/>
<path d="M28.5104 25.2148C28.5957 26.0303 28.6504 26.913 28.6504 27.8626C28.6504 28.8123 28.5957 29.695 28.5104 30.5105C27.6948 30.5958 26.8121 30.6505 25.8625 30.6505C24.9129 30.6505 24.0302 30.5958 23.2146 30.5105C23.1293 29.695 23.0806 28.8123 23.0806 27.8626C23.0806 26.913 23.1293 26.0303 23.2146 25.2148C24.0302 25.1295 24.9129 25.081 25.8625 25.081C26.8121 25.081 27.6945 25.1295 28.5104 25.2148Z" fill="white"/>
<path d="M29.5878 24.1374C29.2956 22.1956 28.7722 20.4487 28.0295 19.28C31.1764 20.0711 33.6537 22.5487 34.4511 25.6956C33.2762 24.9591 31.5295 24.4295 29.5878 24.1374Z" fill="white"/>
<path d="M34.7252 27.8626C34.7252 28.7209 32.8929 29.8224 29.74 30.3461C29.8191 29.5243 29.8678 28.6903 29.8678 27.8626C29.8678 27.0348 29.8191 26.2008 29.74 25.3853C32.8929 25.9087 34.7252 27.0104 34.7252 27.8626Z" fill="white"/>
<path d="M44.9998 34.7773V40.3346C44.9998 41.9842 43.6546 43.3234 42.0051 43.3234H40.5808C38.9313 43.3234 37.5861 41.9841 37.5861 40.3346V34.7773C37.5861 33.1278 38.9313 31.7886 40.5808 31.7886H40.6842V27.9964C40.6842 27.3815 40.179 26.8765 39.5643 26.8765C39.0409 26.8765 38.5903 27.2296 38.4688 27.7408L36.1922 37.2729C35.6444 39.5798 33.6052 41.1869 31.2314 41.1869H29.1072C27.0437 41.1869 25.4366 38.6121 25.3394 36.5183C24.6029 35.9583 23.8055 34.2782 23.3855 31.7399C24.2011 31.819 25.0351 31.8677 25.8628 31.8677C26.6905 31.8677 27.5245 31.819 28.3463 31.7399C27.9564 34.0954 27.2443 35.7086 26.5503 36.378C26.5747 37.8328 27.6702 39.9692 29.107 39.9692H31.2312C33.0388 39.9692 34.5912 38.7455 35.0111 36.9866L37.2875 27.4545C37.5372 26.3952 38.4746 25.6587 39.5639 25.6587C40.8544 25.6587 41.9012 26.7118 41.9012 27.996V31.7882H42.0046C43.6548 31.7888 44.9999 33.1277 44.9999 34.7772L44.9998 34.7773Z" fill="white"/>
<path d="M28.0295 36.4512C28.7723 35.2764 29.2957 33.5296 29.5878 31.5879C31.5295 31.2958 33.2765 30.7723 34.4511 30.0297C33.6537 33.1765 31.1764 35.6538 28.0295 36.4512Z" fill="white"/>
<path d="M22.1374 24.1374C20.1957 24.4295 18.4487 24.9592 17.28 25.6956C18.0715 22.5487 20.5488 20.0714 23.6957 19.28C22.9592 20.4486 22.4295 22.1956 22.1374 24.1374Z" fill="white"/>
<defs>
<linearGradient id="paint0_linear_13_1511" x1="53.172" y1="0" x2="53.172" y2="44.0491" gradientUnits="userSpaceOnUse">
<stop stop-color="#FF007A"/>
<stop offset="1" stop-color="#C11E94"/>
</linearGradient>
</defs>
</svg>
