<svg width="63" height="63" viewBox="0 0 63 63" fill="none" xmlns="http://www.w3.org/2000/svg">
<rect x="31.1475" y="1.27132" width="42.2512" height="42.2512" transform="rotate(45 31.1475 1.27132)" fill="#121212" stroke="url(#paint0_linear_13_1614)" stroke-width="1.79792"/>
<path d="M27.8161 24.2967C27.8161 26.0773 26.3727 27.5208 24.5921 27.5208C22.8116 27.5208 21.3682 26.0773 21.3682 24.2967C21.3682 22.5162 22.8116 21.0728 24.5921 21.0728C26.3727 21.0728 27.8161 22.5162 27.8161 24.2967Z" fill="white"/>
<path d="M42.5248 29.0622C42.5248 30.8427 41.0814 32.2863 39.3007 32.2863C37.5201 32.2863 36.0767 30.8427 36.0767 29.0622C36.0767 27.2816 37.5201 25.8382 39.3007 25.8382C41.0814 25.8382 42.5248 27.2816 42.5248 29.0622Z" fill="white"/>
<path d="M39.3003 33.6406C38.1918 33.6406 37.1289 34.0808 36.3452 34.8647C35.5613 35.6484 35.1211 36.7113 35.1211 37.8198V39.7667C35.1211 40.8713 36.0165 41.7667 37.1211 41.7667H41.4797C42.5842 41.7667 43.4797 40.8713 43.4797 39.7667V37.8198C43.4797 36.7113 43.0393 35.6484 42.2556 34.8647C41.4719 34.0808 40.4086 33.6406 39.3003 33.6406Z" fill="white"/>
<path d="M31.7931 28.3113L29.0585 31.0576L23.2226 29.0547C22.8803 28.9784 22.5301 28.9423 22.1792 28.9471C21.0709 28.9471 20.0078 29.3875 19.2241 30.1712C18.4404 30.9549 18 32.0181 18 33.1264V38.7711C18 40.4279 19.3431 41.7711 21 41.7711H23.3586C25.0154 41.7711 26.3586 40.4279 26.3586 38.7711V33.1221C26.3586 33.0693 26.3445 33.021 26.3434 32.9693L28.9811 33.8751C29.1217 33.9228 29.2696 33.9472 29.4181 33.9472C29.7757 33.9472 30.1186 33.8047 30.3712 33.5513L33.6995 30.2089C33.9584 29.9578 34.1057 29.6133 34.108 29.2525C34.1105 28.892 33.9678 28.5455 33.7123 28.2909C33.4568 28.0364 33.1098 27.8952 32.749 27.899C32.3885 27.9028 32.0445 28.0513 31.7945 28.3112L31.7931 28.3113Z" fill="white"/>
<path d="M28.4331 19.8845L30.319 16L31.7706 16.7047L29.8847 20.5892L28.4331 19.8845Z" fill="white"/>
<path d="M30.501 23.0278L35.5751 21.8418L35.9423 23.413L30.8682 24.599L30.501 23.0278Z" fill="white"/>
<defs>
<linearGradient id="paint0_linear_13_1614" x1="53.172" y1="0" x2="53.172" y2="44.0491" gradientUnits="userSpaceOnUse">
<stop stop-color="#FF007A"/>
<stop offset="1" stop-color="#C11E94"/>
</linearGradient>
</defs>
</svg>
