<svg width="300" height="43" viewBox="0 0 300 43" fill="none" xmlns="http://www.w3.org/2000/svg">
<g clip-path="url(#clip0_30_560)">
<rect y="0.10022" width="42.7996" height="42.7996" rx="11.0689" fill="white"/>
<path d="M19.2981 31.8522L18.773 31.4772L18.3233 31.927C18.0984 32.0771 17.8735 32.2266 17.7234 32.452L16.599 28.2537L15.1744 29.0036C15.2492 26.8297 15.7743 23.9057 16.224 21.956L16.2988 21.7311C16.9734 22.1061 17.648 22.4811 18.4727 22.7059C19.1474 22.856 19.9721 22.856 20.6467 22.4063C21.3213 21.9565 21.6963 21.3567 22.0713 20.682L22.2962 20.157C22.371 19.9321 22.4463 19.782 22.4463 19.5571C22.4463 19.3322 22.5211 19.1821 22.4463 18.9573C22.3715 18.7324 22.3715 18.5075 22.2962 18.3574C21.9965 17.6075 21.3214 17.1577 20.7969 16.7827C19.8974 16.2576 18.9974 15.958 18.1725 15.7331C20.8716 10.7099 24.5455 8.31064 25.5198 7.71072C26.1196 7.7855 26.869 7.7855 27.4689 7.7855H28.9683H29.1931L30.6178 3.81193C30.9927 3.81193 31.2924 3.88671 31.5173 3.88671C33.4664 3.88671 34.8162 2.53747 35.3408 1.33776C35.7157 0.587818 35.8658 -0.461727 35.3408 -1.13635C35.0411 -1.51132 34.5908 -1.58611 34.0663 -1.43602C31.2924 -0.611284 29.268 -2.11065 28.4433 -2.86064C29.268 -3.3104 30.0927 -3.83545 30.9174 -4.43534C31.6674 -4.96041 32.4168 -5.55972 33.0914 -6.23483C33.4664 -6.6098 33.8413 -6.90947 34.141 -7.35921C34.4406 -7.80897 34.8156 -8.25873 35.0405 -9.00862C35.1906 -9.45838 35.1153 -9.98343 34.8156 -10.4332C34.6655 -10.6581 34.5159 -10.8082 34.2906 -10.9583C34.1405 -11.0331 33.9156 -11.1832 33.7655 -11.1832C33.0908 -11.4081 32.491 -11.3333 31.966 -11.3333C30.9164 -11.1832 29.9416 -10.8082 29.1169 -10.5085C27.4675 -9.75861 26.1182 -8.93385 24.9932 -8.18452C24.6183 -7.95964 24.3186 -7.65945 24.0184 -7.43457C23.7188 -8.40938 23.2685 -9.23406 22.6692 -9.90868C22.9688 -10.0588 23.1942 -10.1336 23.4191 -10.2837C24.3186 -10.7334 24.9184 -11.0336 24.8437 -11.1832C24.769 -11.3333 24.1691 -11.1832 23.1943 -10.8835C22.9695 -10.8087 22.6693 -10.7334 22.3696 -10.6586C22.2948 -10.6586 22.1447 -10.5838 22.0699 -10.5838C21.9952 -10.6586 21.9198 -10.7339 21.7703 -10.8087C21.9952 -11.1084 22.1452 -11.3338 22.2953 -11.5587C22.6703 -12.0837 23.0453 -12.6083 23.3449 -13.058C23.9448 -13.8827 24.2445 -14.4826 24.1697 -14.5573C24.0949 -14.6321 23.5698 -14.1824 22.8952 -13.4329C22.5202 -13.058 22.1452 -12.6082 21.6955 -12.0837C21.4706 -11.8588 21.3205 -11.6339 21.0956 -11.3338C18.8463 -12.9085 15.9224 -13.5831 14.423 -13.8827C14.1234 -13.9575 13.8232 -14.0328 13.7484 -14.0328C13.0738 -14.4078 9.92492 -18.0811 7.30073 -21.4553L6.10104 -23.03L5.72606 -16.2827L-1.39424 -21.9783L-1.09457 -15.231L-7.91726 -21.9783L-7.61759 -13.2813L-15.9391 -21.1536L-15.414 -18.7542C-15.414 -18.6794 -13.09 -7.95797 -11.4404 2.38819C-14.2895 2.83794 -16.4636 5.2373 -16.4636 8.16125C-16.4636 11.3848 -12.5649 13.7094 -9.5661 14.0839C-8.74137 19.5568 -6.94178 30.9528 -6.64215 32.3023C-6.19239 34.3267 -10.7658 41.2243 -13.7645 45.123L-14.7393 46.2474H-3.11884L-2.89396 45.8724C-1.84437 44.0729 0.0299835 41.299 0.929525 40.924C1.22919 40.7739 2.27877 41.3738 3.10348 41.8988C5.05264 43.0232 7.67684 44.5232 11.2754 44.373C16.8984 44.2229 18.6979 37.3254 18.9976 35.9009C19.7476 35.1509 20.122 34.4015 20.122 33.5768C20.0483 32.5272 19.3737 31.9274 19.2983 31.8521L19.2981 31.8522ZM17.0488 32.827C16.2988 33.2767 15.5494 33.6517 14.7994 33.9514L14.1248 30.5029L16.074 29.3032L17.0488 32.827ZM6.77759 31.5525V34.4765C6.32783 34.4017 6.02765 34.3264 5.87807 34.3264C5.05334 33.8013 4.45345 33.0519 4.07859 32.077L6.77759 31.5525ZM10.0017 31.4024L12.1009 30.8026L12.7756 34.4764C11.5759 34.7013 10.4515 34.776 9.47663 34.7013L10.0017 31.4024ZM13.4502 34.3264V34.1015V34.3264ZM21.4726 18.732C21.6975 19.1817 21.5474 19.7068 21.2477 20.3067C20.948 20.8317 20.6478 21.3563 20.1981 21.6559C19.7484 21.9556 19.2233 22.0309 18.6988 21.8808C17.5744 21.5811 16.5248 20.906 15.6247 20.3061C14.6499 19.7062 13.7504 19.0316 12.7008 18.5818C11.6512 18.2069 10.6016 18.2069 9.70214 18.2069C7.90265 18.2817 6.47857 18.6566 5.50378 18.8815C5.35369 18.9563 5.20412 18.9563 5.05402 19.0316C5.35369 17.982 5.65388 17.1573 5.87876 16.4073C6.10364 15.9575 6.25373 15.5078 6.47861 15.058C7.45342 15.1328 9.02756 15.2081 10.9773 15.433C12.7015 15.5831 14.8008 15.808 17.0499 16.3325C18.1743 16.6322 19.374 16.9324 20.3489 17.5322C20.7976 17.8324 21.2479 18.2074 21.4728 18.7319L21.4726 18.732ZM21.6222 3.88729L22.1472 7.11087C21.2477 7.18565 19.3733 7.33575 18.6982 7.48584C18.4733 7.18617 18.1731 5.98651 17.9482 4.78681C19.1479 4.41236 20.4229 4.11217 21.6221 3.88729H21.6222ZM15.5495 5.76162L15.8491 7.78603L12.9252 9.66035L12.1758 7.78603C13.3001 6.96129 14.4251 6.2867 15.5494 5.76162H15.5495ZM6.55283 14.7583H6.8525H6.55283ZM28.5949 7.1114C27.3952 7.18619 26.1208 7.1114 25.296 7.03662H25.2212C24.9963 7.03662 24.8462 6.96183 24.7714 6.96183L24.6213 5.91224V3.66291C26.6457 3.58813 28.4448 3.66291 29.7946 3.813L28.5949 7.1114ZM18.5487 33.5769C18.5487 33.9519 18.249 34.4016 17.7239 34.9262L17.5738 35.0762V35.151C17.499 35.151 17.4237 35.2258 17.4237 35.2258C17.0488 35.4507 16.599 35.8257 15.9244 36.1253C14.6499 36.8 12.7008 37.4746 10.5263 37.4746C8.27702 37.4746 6.32799 36.8747 5.05345 36.2749C3.7042 35.675 2.9542 35.1505 2.9542 35.2253C2.9542 35.3001 3.62884 35.8999 4.97861 36.5745C6.32786 37.2492 8.27756 37.9992 10.6016 37.9238C12.9256 37.9238 14.95 37.1738 16.1497 36.4245C16.8244 36.1248 17.2741 35.6745 17.5744 35.4496H17.6491C17.6491 35.6745 16.2245 42.7969 11.3515 42.947C8.20267 43.0217 5.80339 41.6725 4.00431 40.6229C2.57969 39.7982 1.45536 39.1983 0.480572 39.5733C-1.09413 40.248 -3.118 43.4721 -3.86787 44.7466L-11.7407 44.7477C-9.49138 41.6736 -4.6931 34.7014 -5.29302 31.927C-5.5179 31.0275 -6.5675 23.98 -8.29168 13.1837V12.5096H-8.96632C-11.5153 12.5096 -15.039 10.3356 -15.039 8.08632C-15.039 5.68691 -13.0898 3.73788 -10.6906 3.73788H-9.79104L-9.94114 2.83836C-11.1408 -4.88387 -12.715 -12.906 -13.5397 -16.8046L-6.04241 -9.68228L-6.34259 -18.2297L0.554928 -11.4071L0.255266 -18.6047L7.07795 -12.9818L7.37761 -18.7548C9.55157 -16.0558 12.4008 -12.7568 13.2255 -12.3818C13.4504 -12.3071 13.6753 -12.2318 14.125 -12.157C15.4743 -11.8573 18.1733 -11.2574 20.1977 -9.83293C20.1229 -9.68284 19.9728 -9.53327 19.8981 -9.38317C19.6732 -9.08351 19.4483 -8.78332 19.2234 -8.48366L19.0733 -8.25878V-8.184H19.1481L19.2982 -8.25878C19.4483 -8.33356 19.6732 -8.40887 19.8233 -8.48366C20.3483 -8.70854 20.7981 -8.85863 21.2479 -9.00873C22.0726 -8.25878 22.6725 -7.28448 22.8226 -6.08477C22.1479 -5.48492 21.8478 -5.03518 21.9231 -4.96039C22.0732 -4.73551 23.4978 -5.56024 25.8218 -6.83472C26.9462 -7.43457 28.3708 -8.18397 29.8701 -8.78389C30.62 -9.08355 31.4448 -9.30895 32.2695 -9.45852C32.6445 -9.53331 33.0194 -9.45852 33.3191 -9.38374C33.3939 -9.38374 33.3939 -9.38374 33.4692 -9.30896C33.3944 -9.08408 33.1695 -8.7091 32.9441 -8.40944C32.6444 -8.03447 32.3443 -7.7348 32.0446 -7.43463C31.4447 -6.83478 30.6954 -6.23494 30.0954 -5.71038C28.7462 -4.66078 27.4711 -3.76121 26.4216 -3.23627C26.2715 -3.16148 26.1967 -3.08617 26.0466 -3.08617C25.8965 -3.08617 25.8965 -3.01139 25.8218 -3.01139C25.5969 -3.01139 25.4468 -3.08618 25.372 -3.16148C25.0723 -3.38636 24.997 -3.76134 24.997 -3.98622C24.9222 -4.58607 25.2967 -4.73616 25.2967 -4.81094C25.2967 -4.88573 25.1466 -4.96104 24.9217 -4.88573C24.6968 -4.81095 24.3967 -4.51076 24.3219 -4.061C24.2471 -3.61124 24.2471 -3.0114 24.6968 -2.41159C24.9217 -2.11193 25.2967 -1.88652 25.6717 -1.81174C25.8965 -1.73696 26.1967 -1.73696 26.3463 -1.81174C26.5712 -1.88652 26.7213 -1.88652 26.8714 -1.96183C26.9461 -1.96183 27.0215 -2.03662 27.0962 -2.03662C27.6213 -1.51155 30.3198 1.26233 34.2939 0.212709C34.2191 0.512375 34.1438 0.887348 33.7689 1.33709C33.3939 1.86216 32.7193 2.46148 31.5949 2.46148C31.2952 2.46148 30.7702 2.46148 30.1703 2.38669C24.9223 2.01172 10.9022 0.887362 4.45452 15.9568C4.22964 16.6315 -1.39338 31.9261 5.27925 35.7497L5.42934 35.8245C5.65318 35.8261 13.0004 37.7004 18.5486 33.5768L18.5487 33.5769Z" fill="black"/>
<path d="M6.17773 16.7076L15.5494 17.6071C10.9012 15.5827 6.17773 16.7076 6.17773 16.7076Z" fill="black"/>
<path d="M5.27812 9.28526C6.4025 8.01079 7.75223 6.66094 9.32639 5.53661C12.55 3.21258 15.9242 1.93804 18.4731 1.33825C20.9472 0.663616 22.5968 0.663617 22.5968 0.663617C22.5968 0.513524 20.9474 0.438738 18.3984 1.03859C15.8495 1.63844 12.4004 2.83808 9.10161 5.23695C7.4522 6.43664 6.10296 7.7859 4.97796 9.13568C3.85358 10.4849 3.10363 11.8347 2.57855 13.0344C2.05349 14.2341 1.75382 15.2837 1.52895 15.9584C1.37886 16.7083 1.30408 17.0827 1.30408 17.0827C1.37886 17.0827 1.67905 15.508 2.87878 13.184C3.40384 11.9843 4.22856 10.6351 5.27818 9.28528L5.27812 9.28526Z" fill="black"/>
<path d="M1.82938 6.13638C1.82938 6.83613 0.779785 6.83613 0.779785 6.13638C0.779785 5.43664 1.82938 5.43664 1.82938 6.13638Z" fill="black"/>
<path d="M0.554842 10.7098C0.554842 11.4095 -0.494751 11.4095 -0.494751 10.7098C-0.494751 10.0101 0.554842 10.0101 0.554842 10.7098Z" fill="black"/>
<path d="M0.0300088 2.08778C0.0300088 2.88741 -1.16968 2.88741 -1.16968 2.08778C-1.16968 1.28763 0.0300088 1.28763 0.0300088 2.08778Z" fill="black"/>
<path d="M4.30363 0.213538C4.30363 0.712985 3.5542 0.712985 3.5542 0.213538C3.5542 -0.28643 4.30363 -0.28643 4.30363 0.213538Z" fill="black"/>
<path d="M14.2749 39.3495C14.2749 39.8494 13.5249 39.8494 13.5249 39.3495C13.5249 38.8501 14.2749 38.8501 14.2749 39.3495Z" fill="black"/>
<path d="M11.2759 41.3737C11.2759 41.8736 10.526 41.8736 10.526 41.3737C10.526 40.8737 11.2759 40.8737 11.2759 41.3737Z" fill="black"/>
<path d="M10.0014 39.7992C10.0014 40.2987 9.25146 40.2987 9.25146 39.7992C9.25146 39.2993 10.0014 39.2993 10.0014 39.7992Z" fill="black"/>
<path d="M12.2507 39.7994C12.2507 40.1989 11.6509 40.1989 11.6509 39.7994C11.6509 39.3993 12.2507 39.3993 12.2507 39.7994Z" fill="black"/>
<path d="M6.32786 3.36241C6.32786 4.16204 5.12817 4.16204 5.12817 3.36241C5.12817 2.56279 6.32786 2.56279 6.32786 3.36241Z" fill="black"/>
<path d="M27.8117 32.3181C32.3203 34.4069 35.8906 36.2827 35.7864 36.5087C35.6818 36.7341 31.942 35.2232 27.4335 33.1345C22.9249 31.0457 19.3546 29.1694 19.4588 28.9439C19.5634 28.7185 23.3031 30.2294 27.8117 32.3181Z" fill="black"/>
<path d="M32.5376 22.5635C38.3269 22.8715 43.0085 23.3223 42.9954 23.5702C42.9823 23.8181 38.2788 23.77 32.4899 23.462C26.7011 23.1539 22.019 22.7031 22.0321 22.4552C22.0457 22.2068 26.7487 22.2555 32.5376 22.5635Z" fill="black"/>
<path d="M42.007 12.4769C42.052 12.7211 38.0288 13.6698 33.0209 14.5959C28.0129 15.5216 23.9165 16.0744 23.8715 15.8302C23.8265 15.5859 27.8492 14.6373 32.8571 13.7111C37.8651 12.7854 41.9615 12.2327 42.007 12.4769Z" fill="black"/>
<path d="M31.0501 27.256C34.0651 27.8041 36.4728 28.4462 36.4284 28.691C36.3839 28.9352 33.9041 28.6889 30.8896 28.1409C27.8746 27.5928 25.4669 26.9501 25.5113 26.7058C25.5558 26.4616 28.0357 26.7074 31.0501 27.256Z" fill="black"/>
<path d="M38.7161 18.5069C38.7161 18.7554 36.3329 18.9572 33.3933 18.9572C30.4532 18.9572 28.0699 18.7554 28.0699 18.5069C28.0699 18.2585 30.4532 18.0572 33.3933 18.0572C36.3329 18.0572 38.7161 18.2585 38.7161 18.5069Z" fill="black"/>
</g>
<path d="M88.2277 7.6194H75.0876L82.3833 24.9172H80.4221L73.1264 7.6194H61.0062L57.1622 35.0763H71.832L69.1256 15.4642H71.0868L73.7932 35.0763H92.0717L88.2277 7.6194ZM113.717 7.6194H90.1044L93.9483 35.0763H110.383L110.854 30.4871L116.581 28.0552L115.796 22.5638L99.3612 14.7582L99.0867 12.7185L115.522 20.4065L113.717 7.6194ZM146.995 7.6194H115.615L118.479 28.0552L122.166 29.7026L126.245 15.4642H128.206L122.715 35.0763H139.895L134.404 15.4642H136.365L140.405 29.7026L144.131 28.0552L146.995 7.6194Z" fill="#FF007A"/>
<path d="M168.646 7.6194H157.821L160.998 30.0948H159.036L155.859 7.6194H148.877L146.014 28.0552L153.859 35.0763H163.665L171.51 28.0944L168.646 7.6194ZM194.118 7.6194H170.544L174.388 35.0763H197.962L196.472 24.4073L179.448 32.6444L179.723 30.6832L196.236 22.7599L195.726 19.2297L184.391 13.7384L184.116 11.7772L195.452 17.2685L194.118 7.6194ZM223.474 7.6194H196.017L199.861 35.0763H210.726L208.765 21.0733H210.726L212.687 35.0763H219.63L221.317 23.0345L217.081 20.9556L217.316 19.2297L221.552 21.3478L223.474 7.6194ZM209.432 11.6203L210.295 17.9354H208.334L207.471 11.6203H209.432ZM248.946 7.6194H225.372L223.293 22.5638L239.454 23.7405L239.218 25.3487L223.058 24.172L221.528 35.0763H245.102L246.945 21.8578L232.785 15.0328L232.511 13.0716L247.181 20.1319L248.946 7.6194ZM270.614 7.6194H259.788L262.612 27.153H260.651L257.827 7.6194H250.845L247.001 35.0763H262.416L265.828 27.1138H267.947L264.534 35.0763H274.458L270.614 7.6194ZM296.086 7.6194H272.512L274.591 22.4853L290.79 24.525L290.555 26.1332L274.826 24.172L276.356 35.0763H299.93L298.086 21.9754L286.75 16.4841L286.476 14.5229L297.811 20.0142L296.086 7.6194Z" fill="white"/>
<defs>
<clipPath id="clip0_30_560">
<rect y="0.10022" width="42.7996" height="42.7996" rx="11.0689" fill="white"/>
</clipPath>
</defs>
</svg>
