<svg width="63" height="63" viewBox="0 0 63 63" fill="none" xmlns="http://www.w3.org/2000/svg">
<rect x="31.1475" y="1.27132" width="42.2512" height="42.2512" transform="rotate(45 31.1475 1.27132)" fill="#121212" stroke="url(#paint0_linear_13_1494)" stroke-width="1.79792"/>
<path d="M28.5918 32.9108V41.4446H23.507V32.9108H28.5918ZM41.0453 29.1025V41.4444H29.6369V32.3882C29.6369 32.0998 29.4029 31.8654 29.1141 31.8654H22.9842C22.6958 31.8654 22.4614 32.0994 22.4614 32.3882V41.4444H20.1339V29.1271C20.3217 29.1543 20.5123 29.1705 20.7081 29.1705C22.0992 29.1705 23.3131 28.4739 23.9719 27.4392C24.6307 28.4737 25.8446 29.1705 27.2356 29.1705C28.6265 29.1705 29.8409 28.4735 30.4998 27.439C31.1586 28.4735 32.3725 29.1703 33.7635 29.1703C35.1546 29.1703 36.3685 28.4737 37.0273 27.439C37.6862 28.4735 38.9 29.1703 40.2911 29.1703C40.5497 29.1705 40.8029 29.1485 41.0451 29.1023L41.0453 29.1025ZM38.8866 32.3883C38.8866 32.0999 38.6526 31.8655 38.3638 31.8655H32.2339C31.9455 31.8655 31.7111 32.0995 31.7111 32.3883V37.786C31.7111 38.0745 31.9451 38.3088 32.2339 38.3088H38.3642C38.6527 38.3088 38.887 38.0748 38.887 37.786V32.3883H38.8866ZM37.5829 26.0348C37.7789 27.2162 38.9166 28.1281 40.2914 28.1281C41.6661 28.1281 42.8066 27.2161 43 26.0348H37.5829ZM31.0553 26.0348C31.2513 27.2162 32.389 28.1281 33.7638 28.1281C35.1385 28.1281 36.279 27.2161 36.4724 26.0348H31.0553ZM18 26.0348C18.196 27.2162 19.3337 28.1281 20.7086 28.1281C22.0832 28.1281 23.2211 27.2161 23.4171 26.0348H18ZM40.3347 20H20.8442L18.4025 24.9897H42.7764L40.3347 20ZM24.5276 26.0348C24.7236 27.2162 25.8613 28.1281 27.2362 28.1281C28.6109 28.1281 29.7513 27.2161 29.9447 26.0348H24.5276ZM32.7566 32.9106V37.2633H37.8414L37.8416 32.9106H32.7566Z" fill="white"/>
<defs>
<linearGradient id="paint0_linear_13_1494" x1="53.172" y1="0" x2="53.172" y2="44.0491" gradientUnits="userSpaceOnUse">
<stop stop-color="#FF007A"/>
<stop offset="1" stop-color="#C11E94"/>
</linearGradient>
</defs>
</svg>
