<svg width="63" height="63" viewBox="0 0 63 63" fill="none" xmlns="http://www.w3.org/2000/svg">
<rect x="31.1475" y="1.27132" width="42.2512" height="42.2512" transform="rotate(45 31.1475 1.27132)" fill="#121212" stroke="url(#paint0_linear_13_1620)" stroke-width="1.79792"/>
<path d="M21.161 25.8984C20.6884 25.8984 20.2378 25.6246 20.036 25.1648L20.0361 25.1649C19.7641 24.5445 20.0466 23.8215 20.6675 23.5494L22.8462 22.5952L20.6675 21.6409C20.0466 21.3689 19.7641 20.6458 20.0361 20.0254C20.3085 19.4055 21.0325 19.1233 21.6537 19.3954L26.3962 21.4724C26.8424 21.6676 27.1306 22.1086 27.1306 22.5951C27.1306 23.0817 26.8424 23.5226 26.3957 23.7183L21.6533 25.7949C21.4931 25.8655 21.326 25.8984 21.161 25.8984Z" fill="white"/>
<path d="M39.7675 25.7949L35.0251 23.7179C34.5784 23.5227 34.2907 23.0821 34.2907 22.5951C34.2907 22.1085 34.5785 21.6676 35.0251 21.4723L39.7676 19.3953C40.3884 19.1233 41.1123 19.4054 41.3848 20.0258C41.6572 20.6458 41.3747 21.3688 40.7534 21.6409L38.575 22.5951L40.7534 23.5494C41.3747 23.8214 41.6572 24.5445 41.3848 25.1644C41.1829 25.6247 40.7323 25.8989 40.2602 25.8989C40.0953 25.8989 39.9281 25.8656 39.7675 25.7949Z" fill="white"/>
<path fill-rule="evenodd" clip-rule="evenodd" d="M43.4823 28.105H17.9376C17.2597 28.105 16.71 28.6539 16.71 29.3313C16.71 37.0415 22.9906 43.3139 30.7105 43.3139C38.4304 43.3139 44.71 37.0416 44.71 29.3313C44.71 28.6539 44.1602 28.105 43.4823 28.105ZM22.5204 38.0109C24.7378 39.8633 27.5937 40.979 30.7105 40.979C33.8274 40.979 36.6827 39.8633 38.9002 38.0109C36.9881 35.5969 34.0313 34.0464 30.7105 34.0464C27.3892 34.0464 24.4325 35.5969 22.5204 38.0109Z" fill="white"/>
<defs>
<linearGradient id="paint0_linear_13_1620" x1="53.172" y1="0" x2="53.172" y2="44.0491" gradientUnits="userSpaceOnUse">
<stop stop-color="#FF007A"/>
<stop offset="1" stop-color="#C11E94"/>
</linearGradient>
</defs>
</svg>
