<svg width="63" height="63" viewBox="0 0 63 63" fill="none" xmlns="http://www.w3.org/2000/svg">
<rect x="31.1475" y="1.27132" width="42.2512" height="42.2512" transform="rotate(45 31.1475 1.27132)" fill="#121212" stroke="url(#paint0_linear_13_1482)" stroke-width="1.79792"/>
<path d="M39.9501 18.6002H27.7502C26.9412 18.6002 26.1656 18.9216 25.5934 19.4935C25.0214 20.0655 24.7002 20.8413 24.7002 21.6501V38.425C24.7002 38.8294 24.5394 39.2173 24.2534 39.5033C23.9675 39.7893 23.5795 39.9501 23.1751 39.9501C22.7707 39.9501 22.3828 39.7893 22.0968 39.5033C21.8109 39.2174 21.6501 38.8294 21.6501 38.425V29.2751C21.6501 28.8707 21.4894 28.4828 21.2035 28.1968C20.9175 27.9108 20.5296 27.7502 20.1252 27.7502C19.7208 27.7502 19.3329 27.9108 19.0469 28.1968C18.7607 28.4828 18.6001 28.8707 18.6001 29.2751V38.425C18.6001 39.6384 19.0821 40.802 19.94 41.66C20.7981 42.5179 21.9617 43 23.1751 43H39.1875C40.1985 43 41.1684 42.5983 41.8832 41.8833C42.5982 41.1684 42.9999 40.1986 42.9999 39.1875V21.6501C42.9999 20.8413 42.6785 20.0655 42.1065 19.4935C41.5346 18.9216 40.7588 18.6002 39.95 18.6002H39.9501ZM35.7563 38.425H28.5126V36.1376H35.7563V38.425ZM39.1876 33.8501H28.5127V31.5627H39.1876V33.8501ZM35.7563 29.2751H28.5126V26.9877H35.7563V29.2751ZM39.1876 24.7001H28.5127V22.4125H39.1876V24.7001Z" fill="white"/>
<defs>
<linearGradient id="paint0_linear_13_1482" x1="53.172" y1="0" x2="53.172" y2="44.0491" gradientUnits="userSpaceOnUse">
<stop stop-color="#FF007A"/>
<stop offset="1" stop-color="#C11E94"/>
</linearGradient>
</defs>
</svg>
