<svg width="63" height="63" viewBox="0 0 63 63" fill="none" xmlns="http://www.w3.org/2000/svg">
<rect x="31.1475" y="1.27132" width="42.2512" height="42.2512" transform="rotate(45 31.1475 1.27132)" fill="#121212" stroke="url(#paint0_linear_13_1500)" stroke-width="1.79792"/>
<path d="M30.5833 20.0537C30.9872 20.0537 31.3151 19.7256 31.3151 19.3219V17.7318C31.3151 17.328 30.987 17 30.5833 17C30.1795 17 29.8516 17.3281 29.8516 17.7318V19.347C29.8516 19.7508 30.1795 20.0538 30.5833 20.0538V20.0537Z" fill="white"/>
<path d="M27.1252 20.4576C27.2514 20.6847 27.5037 20.8109 27.7561 20.8109C27.8824 20.8109 28.0086 20.7857 28.1094 20.71C28.4628 20.5081 28.5636 20.0539 28.3871 19.7258L27.5794 18.3377C27.3775 17.9844 26.9233 17.8835 26.5951 18.0601C26.2418 18.262 26.141 18.7162 26.3175 19.0443L27.1252 20.4576Z" fill="white"/>
<path d="M33.032 20.7095C33.1582 20.7852 33.2591 20.8103 33.3853 20.8103C33.6377 20.8103 33.89 20.6841 34.0162 20.457L34.8239 19.0689C35.0258 18.7156 34.8996 18.2866 34.5463 18.0847C34.193 17.8828 33.764 18.009 33.562 18.3623L32.7544 19.7504C32.5776 20.0785 32.7038 20.5076 33.032 20.7095L33.032 20.7095Z" fill="white"/>
<path d="M30.6079 21.5667C32.0993 21.5798 33.2976 22.7994 33.2846 24.2908C33.2716 25.782 32.052 26.9805 30.5606 26.9675C29.0694 26.9544 27.8709 25.7348 27.8839 24.2435C27.8969 22.752 29.1165 21.5537 30.6079 21.5667Z" fill="white"/>
<path d="M23.7183 26.287C24.2735 27.9527 25.5353 29.265 27.1757 29.8708C27.3776 29.9465 27.5795 29.9716 27.7814 30.0475V33.303H33.3588V30.0473C33.5607 29.9968 33.7626 29.9465 33.9645 29.8706C35.6301 29.265 36.8919 27.9526 37.4471 26.2869L38.0781 24.3436C38.28 23.6875 37.9267 22.9556 37.2704 22.7537C36.6143 22.5266 35.8823 22.9051 35.6804 23.5613L35.0495 25.5046C34.7467 26.4384 34.0401 27.1703 33.1315 27.4983C32.7025 27.6497 32.2481 27.7254 31.7939 27.7254H29.3965C28.9423 27.7254 28.4879 27.6497 28.0589 27.4983C27.1504 27.1701 26.4437 26.4383 26.1409 25.5046L25.51 23.5867C25.3081 22.9305 24.5763 22.5519 23.92 22.779C23.2639 22.9809 22.8853 23.7127 23.1123 24.369L23.7183 26.287Z" fill="white"/>
<path d="M41.7383 34.5647H39.6436V32.8738C39.6436 32.4699 39.4922 32.0915 39.1894 31.7887L38.609 31.2083C38.6342 31.1074 38.6595 31.0063 38.6595 30.9055C38.6595 30.2494 38.1295 29.7193 37.4734 29.7193C36.8173 29.7193 36.2872 30.2494 36.2872 30.9055C36.2872 31.5615 36.8173 32.0916 37.4734 32.0916C37.6248 32.0916 37.751 32.0664 37.9024 32.0159L38.4325 32.546C38.5333 32.6469 38.5587 32.7479 38.5587 32.8741V34.565L22.5836 34.5647V32.8738C22.5836 32.7475 22.6341 32.6213 22.7098 32.5456L23.2399 32.0156C23.3661 32.0661 23.5175 32.0913 23.6689 32.0913C24.325 32.0913 24.8551 31.5612 24.8551 30.9051C24.8551 30.249 24.325 29.719 23.6689 29.719C23.0128 29.719 22.4828 30.249 22.4828 30.9051C22.4828 31.006 22.508 31.107 22.5333 31.2079L21.9529 31.7883C21.6753 32.0659 21.4987 32.4698 21.4987 32.8734V34.5643L19.429 34.5647C19.2019 34.5647 19 34.7414 19 34.9937V36.5331C19 36.7602 19.1767 36.9621 19.429 36.9621H21.2713V40.5709C21.2713 40.798 21.448 40.9999 21.7003 40.9999H39.4924C39.7195 40.9999 39.9214 40.8232 39.9214 40.5709V36.9621H41.7637C41.9908 36.9621 42.1927 36.7854 42.1927 36.5331V34.9937C42.1675 34.7412 41.9656 34.5647 41.7385 34.5647H41.7383Z" fill="white"/>
<defs>
<linearGradient id="paint0_linear_13_1500" x1="53.172" y1="0" x2="53.172" y2="44.0491" gradientUnits="userSpaceOnUse">
<stop stop-color="#FF007A"/>
<stop offset="1" stop-color="#C11E94"/>
</linearGradient>
</defs>
</svg>
