<svg width="63" height="63" viewBox="0 0 63 63" fill="none" xmlns="http://www.w3.org/2000/svg">
<rect x="31.1475" y="1.27132" width="42.2512" height="42.2512" transform="rotate(45 31.1475 1.27132)" fill="#121212" stroke="url(#paint0_linear_13_1465)" stroke-width="1.79792"/>
<path d="M45.3261 29.878L43.8627 27.3171V24.4818C43.8627 23.8414 43.5273 23.2624 42.9787 22.9269L40.5092 21.494L39.0458 18.9635C38.7408 18.4148 38.1311 18.0794 37.491 18.0794H34.564L32.0639 16.6465C31.5152 16.3415 30.8138 16.3415 30.2651 16.6465L27.765 18.0794H24.8991C24.2587 18.0794 23.6797 18.4148 23.3442 18.9635L21.9113 21.433L19.3504 22.8963C18.8017 23.2013 18.4663 23.811 18.4663 24.4512V27.3781L17.0638 29.8172C16.9113 30.0916 16.8198 30.3966 16.8198 30.7013C16.8198 31.0063 16.9113 31.311 17.0638 31.5853L18.4663 34.0244V36.9514C18.4663 37.5917 18.8017 38.1708 19.3504 38.5062L21.9113 39.9696L23.3442 42.4391C23.6492 42.9877 24.2589 43.3231 24.8991 43.3231H27.765L30.2651 44.7561C30.5395 44.9085 30.8445 45 31.1492 45C31.4542 45 31.7589 44.9085 32.0332 44.7561L34.5334 43.3231H37.4603C38.1007 43.3231 38.6797 42.9877 39.0152 42.4391L40.4785 39.9086L42.948 38.4756C43.4967 38.1707 43.832 37.5609 43.832 36.9208V34.0855L45.2954 31.5246C45.6614 31.0975 45.6614 30.4268 45.326 29.8781L45.3261 29.878ZM28.4662 34.0244H26.6674V29.2376H28.4662V34.0244ZM35.2345 34.0244H29.3503V29.2073L32.0333 26.2803L33.1919 26.4938L32.3381 28.9937H36.3319L35.2345 34.0244Z" fill="white"/>
<defs>
<linearGradient id="paint0_linear_13_1465" x1="53.172" y1="0" x2="53.172" y2="44.0491" gradientUnits="userSpaceOnUse">
<stop stop-color="#FF007A"/>
<stop offset="1" stop-color="#C11E94"/>
</linearGradient>
</defs>
</svg>
