<svg width="63" height="63" viewBox="0 0 63 63" fill="none" xmlns="http://www.w3.org/2000/svg">
<rect x="31.1475" y="1.27132" width="42.2512" height="42.2512" transform="rotate(45 31.1475 1.27132)" fill="#121212" stroke="url(#paint0_linear_13_1625)" stroke-width="1.79792"/>
<path fill-rule="evenodd" clip-rule="evenodd" d="M31.3668 17C38.6833 17 44.5928 21.784 44.5928 27.5525C44.5928 32.6175 40.2311 36.698 34.4623 37.824L38.824 45L27.568 37.6835C22.0805 36.4171 18 32.337 18 27.553C18 21.784 23.9095 17.0005 31.367 17.0005L31.3668 17ZM29.9598 22.206C29.9598 20.3769 32.7738 19.2513 32.7738 22.6281C32.7738 24.1757 32.6332 30.2261 31.2261 30.2261C29.9597 30.2261 29.9598 23.6131 29.9598 22.2061V22.206ZM31.3668 34.588C30.5226 34.588 29.9598 34.0251 29.9598 33.181C29.9598 32.4774 30.5226 31.9145 31.3668 31.9145C32.0703 31.9145 32.7738 32.4774 32.7738 33.181C32.7738 34.0251 32.2109 34.588 31.3668 34.588Z" fill="white"/>
<defs>
<linearGradient id="paint0_linear_13_1625" x1="53.172" y1="0" x2="53.172" y2="44.0491" gradientUnits="userSpaceOnUse">
<stop stop-color="#FF007A"/>
<stop offset="1" stop-color="#C11E94"/>
</linearGradient>
</defs>
</svg>
