<svg width="19" height="17" viewBox="0 0 19 17" fill="none" xmlns="http://www.w3.org/2000/svg">
<path d="M5.68394 1.64386L4.41439 1.54909C4.30072 1.53019 4.20595 1.47336 4.14912 1.35955L3.65649 0.184779C3.54282 -0.0615929 3.18278 -0.0615929 3.088 0.184779L2.59538 1.35955C2.55744 1.47322 2.44377 1.54909 2.3301 1.54909L1.06045 1.64386C0.776276 1.66276 0.681513 2.00392 0.889944 2.1933L1.85628 3.02707C1.95105 3.10281 1.98899 3.21661 1.95105 3.33028L1.64785 4.58091C1.59101 4.84619 1.87519 5.05463 2.12156 4.92192L3.22058 4.25865C3.31535 4.20182 3.44792 4.20182 3.54268 4.25865L4.6417 4.92192C4.86904 5.07353 5.17226 4.84618 5.11541 4.58091L4.8122 3.33028C4.7933 3.21661 4.83111 3.10294 4.90697 3.02707L5.87332 2.1933C6.08189 2.0039 5.96822 1.66288 5.68391 1.64386H5.68394Z" fill="white"/>
<path d="M8.29886 3.89881H17.811C18.3416 3.89881 18.7774 3.46303 18.7774 2.93247C18.7774 2.40191 18.3416 1.96613 17.811 1.96613H8.29886C7.7683 1.96613 7.33252 2.40191 7.33252 2.93247C7.33252 3.46303 7.7683 3.89881 8.29886 3.89881Z" fill="white"/>
<path d="M5.68394 7.63167L4.41439 7.5369C4.30072 7.5369 4.20595 7.46116 4.14912 7.34736L3.65649 6.17259C3.54282 5.92622 3.18278 5.92622 3.088 6.17259L2.59538 7.34736C2.55744 7.46103 2.44377 7.5369 2.3301 7.5369L1.06045 7.63167C0.776276 7.65057 0.681513 7.99173 0.889944 8.18111L1.85628 9.01488C1.95105 9.09062 1.98899 9.20442 1.95105 9.31809L1.64785 10.5687C1.59101 10.834 1.87519 11.0424 2.12156 10.9097L3.22058 10.2465C3.31535 10.1896 3.44792 10.1896 3.54268 10.2465L4.6417 10.9097C4.86904 11.0613 5.17226 10.834 5.11541 10.5687L4.8122 9.31809C4.7933 9.20442 4.83111 9.09074 4.90697 9.01488L5.87332 8.18111C6.08189 8.0106 5.96822 7.6696 5.68391 7.63167H5.68394Z" fill="white"/>
<path d="M17.811 7.97273H8.29886C7.7683 7.97273 7.33252 8.40851 7.33252 8.93907C7.33252 9.46963 7.7683 9.90542 8.29886 9.90542H17.811C18.3416 9.90542 18.7774 9.46963 18.7774 8.93907C18.7774 8.40851 18.3416 7.97273 17.811 7.97273Z" fill="white"/>
<path d="M5.68394 13.6384L4.41439 13.5436C4.30072 13.5436 4.20595 13.4678 4.14912 13.354L3.65649 12.1793C3.54282 11.9329 3.18278 11.9329 3.088 12.1793L2.59538 13.354C2.55744 13.4677 2.44377 13.5436 2.3301 13.5436L1.06045 13.6384C0.776276 13.6573 0.681513 13.9984 0.889944 14.1878L1.85628 15.0216C1.95105 15.0973 1.98899 15.2111 1.95105 15.3248L1.64785 16.5754C1.59101 16.8407 1.87519 17.0491 2.12156 16.9164L3.22058 16.2531C3.31535 16.1963 3.44792 16.1963 3.54268 16.2531L4.6417 16.9164C4.86904 17.068 5.17226 16.8407 5.11541 16.5754L4.8122 15.3248C4.7933 15.2111 4.83111 15.0974 4.90697 15.0216L5.87332 14.1878C6.08189 13.9984 5.96822 13.6574 5.68391 13.6384H5.68394Z" fill="white"/>
<path d="M17.811 13.9794H8.29886C7.7683 13.9794 7.33252 14.4152 7.33252 14.9458C7.33252 15.4763 7.7683 15.9121 8.29886 15.9121H17.811C18.3416 15.9121 18.7774 15.4763 18.7774 14.9458C18.7774 14.3963 18.3416 13.9794 17.811 13.9794Z" fill="white"/>
</svg>
